<?xml version="1.0" encoding="UTF-8"?>
<svg id="Vrstva_1" data-name="Vrstva 1" xmlns="http://www.w3.org/2000/svg" viewBox="0 0 256 256">
  <defs>
    <style>
      .cls-1 {
        fill: #fff;
      }
    </style>
  </defs>
  <path class="cls-1" d="M128,32c-40.91,0-75.06,25.28-89,61l14.75,6c11.66-29.87,39.94-51,74.25-51,25.94,0,49.06,12.72,63.5,32h-31.5v16h56v-56h-16v24.75c-17.53-20.09-43.44-32.75-72-32.75ZM202.25,157c-11.66,29.88-39.94,51-74.25,51-26.22,0-49.25-12.91-63.75-32h31.75v-16h-56v56h16v-24.75c17.5,19.84,43.16,32.75,72,32.75,40.91,0,75.06-25.28,89-61l-14.75-6Z"/>
</svg>